<!-- <?xml version="1.0" standalone="yes"?> -->
<svg xmlns="http://www.w3.org/2000/svg" version="1.1" width="200" height="276">
<path style="fill:#ffffff; stroke:none;" d="M0 0L0 216L20.0147 207.76C38.8819 201.15 57.9602 199.666 64.3627 177C69.5173 158.752 50.2823 143.291 44.3395 128.999C32.111 99.5903 34.5529 67.4353 48.4853 39L52.8534 26.2863C55.8219 22.5029 64.4733 26.3747 68.9645 24.0193C77.8391 19.365 83.585 14.705 94 13.9884C121.314 12.1092 143.348 32.0458 155.873 54C158.936 59.3691 164.058 66.8527 164.971 73C166.51 83.3463 163.809 98.0025 161 108L157 107C159.968 119.092 154.74 120.993 151.41 132C145.423 151.794 142.098 170.447 124.896 184.395L100.144 195.985C95.7968 198.799 90.13 210.005 88.7932 215C84.1197 232.462 105.333 224.595 113 220.558C126.118 213.652 132.765 200.245 137 187L139 187L144.43 198.366C149.41 203.233 156.782 203.858 163 206.09C174.881 210.356 187.189 219.726 200 220L200 0L0 0z"/>
<path style="fill:#624b32; stroke:none;" d="M0 216L0 276L200 276L200 220C188.096 219.448 175.99 210.76 165 206.464C158.342 203.861 150.844 203.301 145.228 198.366L139 187L137 187C131.414 199.984 125.565 213.416 112 220.558C104.771 224.364 84.125 231.698 89.1983 215C90.7595 209.862 96.4399 198.777 101.058 195.985L125.791 184.395C143.184 169.538 144.316 151.796 151.723 132C155.606 121.623 161.504 118.539 157 107L161 108C176.822 65.7529 141.665 13.7106 96 13.6343C83.8917 13.614 78.3662 19.389 67.9853 23.8565L53.5725 24.8819C49.8787 27.4383 48.5243 37.8384 46.3086 42C32.7434 67.4791 32.0266 105.202 44.7677 130.985C51.1154 143.83 67.7077 158.308 64.5941 175C59.372 202.995 21.7882 207.131 0 216z"/>
<path style="fill:#ffffff; stroke:none;" d="M98 77L102 77L102 81C96.405 81.8386 89.074 83.7524 88 90C114.515 93.9187 99.9845 123.038 105 140C115.024 136.167 130.624 141.188 126 154C118.756 150.061 106.995 151.289 99.2855 154.171C95.1286 155.724 86.2997 158.171 93 163C104.703 149.224 109.939 163.672 113 174L127.141 173.262C134.286 168.449 128.988 160.523 140 159C144.547 138.871 146 120.811 146 100C146 94.9928 148.09 83.8395 144.972 79.7029L136 75.3657L124.91 68.5579L105.424 66.0031C101.834 64.9469 91.3263 63.3838 90.662 69.0748C90.2393 72.6969 96.3691 74.0356 98 77z"/>
<path style="fill:#624b32; stroke:none;" d="M120 94L122 98C116.463 100.787 110.266 110.876 120.019 113.233L139 111C138.745 105.53 137.405 102.655 132 101L144 100C139.344 91.6277 128.268 94 120 94M15 206L6 210C8.53666 211.394 16.3438 209.404 15 206z"/>
</svg>
